<?xml version="1.0" encoding="UTF-8" standalone="no"?>
<!-- Created with Inkscape (http://www.inkscape.org/) -->

<svg
   width="356.0535mm"
   height="220.1994mm"
   viewBox="0 0 356.0535 220.1994"
   version="1.1"
   id="svg1"
   xml:space="preserve"
   sodipodi:docname="bg.svg"
   inkscape:version="1.4 (86a8ad7, 2024-10-11)"
   xmlns:inkscape="http://www.inkscape.org/namespaces/inkscape"
   xmlns:sodipodi="http://sodipodi.sourceforge.net/DTD/sodipodi-0.dtd"
   xmlns:xlink="http://www.w3.org/1999/xlink"
   xmlns="http://www.w3.org/2000/svg"
   xmlns:svg="http://www.w3.org/2000/svg"><sodipodi:namedview
     id="namedview1"
     pagecolor="#ffffff"
     bordercolor="#000000"
     borderopacity="0.25"
     inkscape:showpageshadow="2"
     inkscape:pageopacity="0.0"
     inkscape:pagecheckerboard="0"
     inkscape:deskcolor="#d1d1d1"
     inkscape:document-units="mm"
     inkscape:zoom="2.8284271"
     inkscape:cx="1201.9047"
     inkscape:cy="573.4636"
     inkscape:window-width="2560"
     inkscape:window-height="1009"
     inkscape:window-x="-8"
     inkscape:window-y="-8"
     inkscape:window-maximized="1"
     inkscape:current-layer="g62" /><defs
     id="defs1"><linearGradient
       id="linearGradient34"
       inkscape:collect="always"><stop
         style="stop-color:#dfeef5;stop-opacity:1;"
         offset="0"
         id="stop34" /><stop
         style="stop-color:#ebf4fb;stop-opacity:1"
         offset="1"
         id="stop35" /></linearGradient><linearGradient
       inkscape:collect="always"
       xlink:href="#linearGradient34"
       id="linearGradient35"
       x1="460.72525"
       y1="167.834"
       x2="510.28329"
       y2="121.79649"
       gradientUnits="userSpaceOnUse"
       gradientTransform="matrix(0.71125585,0,0,0.71125585,-282.58648,86.416989)" /><linearGradient
       inkscape:collect="always"
       xlink:href="#linearGradient34"
       id="linearGradient38"
       x1="452.52316"
       y1="111.87043"
       x2="584.67578"
       y2="111.87043"
       gradientUnits="userSpaceOnUse"
       gradientTransform="matrix(0.71125585,0,0,0.71125585,-282.58648,86.416989)" /><linearGradient
       inkscape:collect="always"
       xlink:href="#linearGradient34"
       id="linearGradient49"
       gradientUnits="userSpaceOnUse"
       x1="452.52316"
       y1="111.87043"
       x2="584.67578"
       y2="111.87043"
       gradientTransform="matrix(0.71125585,0,0,0.71125585,-282.58648,86.416989)" /></defs><g
     inkscape:label="Camada 1"
     inkscape:groupmode="layer"
     id="layer1"
     transform="translate(19.507075,8.3240962)"><g
       id="g62"
       transform="matrix(1.2956478,0,0,1.2956478,-20.849484,-59.695288)"><path
         id="rect57"
         style="opacity:1;vector-effect:none;fill:#60aed5;fill-opacity:1;stroke:none;stroke-width:0.201;stroke-linecap:round;stroke-linejoin:round;paint-order:fill markers stroke"
         d="m 168.43802,121.77079 c 20.29234,16.68769 26.77372,49.49749 52.14722,47.70439 56.08005,-3.47797 59.54475,26.82473 46.83125,56.46373 L 22.134689,223.35994 C -35.484931,90.923264 141.15529,93.062644 168.43802,121.77079 Z"
         sodipodi:nodetypes="ccccc" /><path
         id="path32"
         style="font-variation-settings:normal;vector-effect:none;fill:url(#linearGradient49);fill-opacity:1;stroke:none;stroke-width:0.142962;stroke-linecap:round;stroke-linejoin:round;stroke-miterlimit:4;stroke-dasharray:none;stroke-dashoffset:0;stroke-opacity:1;-inkscape-stroke:none;paint-order:fill markers stroke"
         d="m 96.25525,124.95257 -19.092838,1.6889 c -7.72729,-1.97833 -16.746619,4.06413 -24.913387,7.26613 -9.051499,3.08375 -10.583643,12.2059 -10.380388,16.47918 -0.422855,2.53658 -0.954235,10.15594 -1.759839,18.2596 -1.332573,13.4045 -2.840848,29.32908 13.573678,29.70736 l -0.02091,0.44033 c 10.28104,1.50072 21.313102,-1.25329 32.030291,-2.22406 0.365329,-0.0353 0.437458,-0.3052 0.332996,-0.71636 11.800388,2.01144 22.462967,5.31948 30.898967,11.16476 l -0.20804,-9.25128 c 13.53427,0.0558 16.09289,-8.69436 16.44206,-19.50486 0.38852,-12.02858 -2.29799,-26.42286 -2.77097,-30.18849 -2.39277,-18.31849 -20.93999,-13.92766 -34.13162,-23.12121 z"
         sodipodi:nodetypes="ccccsccccccscc" /><path
         style="font-variation-settings:normal;opacity:1;vector-effect:none;fill:#b8daee;fill-opacity:1;stroke:none;stroke-width:0.201;stroke-linecap:round;stroke-linejoin:round;stroke-miterlimit:4;stroke-dasharray:none;stroke-dashoffset:0;stroke-opacity:1;-inkscape-stroke:none;paint-order:fill markers stroke"
         d="m 67.70026,138.21172 -0.297657,1.25677 6.449219,0.66146 -4.564062,6.77994 16.33802,22.48959 16.63568,-22.88646 -4.001826,-7.14375 h 6.482296 l 0.95911,0.0331 0.75856,-9.67928 -1.91956,-0.59035 -0.32728,-0.47907 -3.5388,4.69636 -6.54844,2.87734 -13.956771,-2.01745 c 0,0 -6.515365,-1.19062 -6.515365,-1.38906 0,-0.19844 0.264584,-4.69635 0.264584,-4.69635 z"
         id="path58"
         sodipodi:nodetypes="cccccccccccccccscc" /><path
         style="font-variation-settings:normal;vector-effect:none;fill:#fdfdfd;fill-opacity:1;stroke:none;stroke-width:0.142962;stroke-linecap:round;stroke-linejoin:round;stroke-miterlimit:4;stroke-dasharray:none;stroke-dashoffset:0;stroke-opacity:1;-inkscape-stroke:none;paint-order:fill markers stroke"
         d="m 74.601883,126.51237 c -3.329708,0.31837 -6.293248,1.91835 -9.288617,3.40689 l 0.169912,8.80949 9.21045,0.90408 -4.771075,7.24836 15.735383,21.46983 15.689494,-21.83684 -3.715929,-7.34011 7.385979,-0.22938 0.45876,-9.58803 c -2.59369,-1.66724 -5.55261,-3.65983 -8.854018,-4.12881 z"
         id="path19"
         sodipodi:nodetypes="cccccccccccc" /><path
         id="rect42"
         style="vector-effect:none;fill:#e28e67;fill-opacity:1;stroke:none;stroke-width:0.142962;stroke-linecap:round;stroke-linejoin:round;paint-order:fill markers stroke"
         d="m 57.03651,173.67668 6.358229,0.87182 2.8689,-1.11212 4.327892,0.89764 4.847714,-0.6104 10.101021,2.39948 -0.658652,12.82296 C 72.593453,181.97234 57.373453,189.39495 57.03651,173.67668 Z"
         sodipodi:nodetypes="cccccccc" /><path
         id="path42"
         style="vector-effect:none;fill:#feac87;fill-opacity:1;stroke:none;stroke-width:0.142962;stroke-linecap:round;stroke-linejoin:round;paint-order:fill markers stroke"
         d="m 58.471433,173.88839 3.534244,-3.57322 4.257962,3.12121 4.327892,0.89764 4.847714,-0.6104 10.101021,2.39948 -0.575484,11.30931 c -12.11443,-7.19316 -25.243729,1.02139 -26.493349,-13.54402 z"
         sodipodi:nodetypes="cccccccc" /><path
         id="rect38"
         style="vector-effect:none;fill:#c6dcea;fill-opacity:1;stroke:none;stroke-width:0.142962;stroke-linecap:round;stroke-linejoin:round;paint-order:fill markers stroke"
         d="m 55.505809,148.2603 c 0.519409,10.03052 3.683943,18.20311 10.215931,25.78408 l -9.040047,0.0117 c -2.638397,-5.54047 -1.880874,-16.72136 -1.175884,-25.79585 z"
         sodipodi:nodetypes="cccc" /><path
         id="path17"
         style="vector-effect:none;fill:#6abade;fill-opacity:1;stroke:none;stroke-width:0.142962;stroke-linecap:round;stroke-linejoin:round;paint-order:fill markers stroke"
         d="m 73.700978,127.72414 c 0.111653,-0.85723 0.434435,-0.86993 0.651959,-1.30367 l 22.527172,0.093 c 0.366183,0.31672 1.172918,0.29201 0.755162,1.21629 L 85.69177,168.54279 Z"
         sodipodi:nodetypes="cccccc" /><path
         id="rect17"
         style="vector-effect:none;fill:#7dcdf0;fill-opacity:1;stroke:none;stroke-width:0.142962;stroke-linecap:round;stroke-linejoin:round;paint-order:fill markers stroke"
         d="M 74.058221,126.44356 H 97.23583 L 85.617394,165.2666 Z"
         sodipodi:nodetypes="cccc" /><path
         id="rect2"
         style="fill:#fdab86;fill-opacity:1;stroke:none;stroke-width:0.142962;stroke-linecap:round;stroke-linejoin:round;paint-order:fill markers stroke"
         d="m 72.409075,79.488077 c 3.933564,-4.42239 15.39026,1.558323 25.952808,1.946342 -0.315527,2.090763 -0.132941,4.615688 0.575321,6.797559 2.178396,6.710769 3.210866,13.325082 -1.9702,19.437652 -1.32901,-5.19887 -5.639214,-3.87035 -8.048721,-5.43461 -1.568326,0.92733 -3.059168,1.93382 -7.366043,0.0631 -1.844315,1.76475 -6.04709,0.3397 -7.164381,5.50131 -5.971682,-6.9314 -4.104835,-14.969907 -2.321389,-21.33602 0.636296,-2.27129 0.287432,-4.669847 0.342605,-6.975292 z"
         sodipodi:nodetypes="ccsccccscc" /><path
         id="rect14"
         style="vector-effect:none;fill:#f6a37d;fill-opacity:1;stroke:none;stroke-width:0.142962;stroke-linecap:round;stroke-linejoin:round;paint-order:fill markers stroke"
         d="m 102.507,92.822136 0.43537,-0.778537 c 2.70085,-0.772825 2.89357,2.112542 2.42547,4.61821 -0.43569,2.332119 -1.3419,4.966651 -3.99621,5.404731 l -0.21867,-9.218138 z"
         sodipodi:nodetypes="ccsccc" /><path
         id="rect15"
         style="vector-effect:none;fill:#e0865a;fill-opacity:1;stroke:none;stroke-width:0.142962;stroke-linecap:round;stroke-linejoin:round;paint-order:fill markers stroke"
         d="m 101.50792,93.310284 c 6.21669,-1.566946 1.58511,6.865196 0.1835,6.471785 z"
         sodipodi:nodetypes="ccc" /><path
         id="path15"
         style="vector-effect:none;fill:#f6a37d;fill-opacity:1;stroke:none;stroke-width:0.142962;stroke-linecap:round;stroke-linejoin:round;paint-order:fill markers stroke"
         d="m 68.446093,92.984331 -0.435374,-0.778537 c -2.700844,-0.772825 -2.893573,2.112542 -2.425467,4.61821 0.435686,2.332119 1.341898,4.966646 3.996212,5.404726 l 0.218661,-9.218133 z"
         sodipodi:nodetypes="ccsccc" /><path
         id="path16"
         style="vector-effect:none;fill:#e0865a;fill-opacity:1;stroke:none;stroke-width:0.142962;stroke-linecap:round;stroke-linejoin:round;paint-order:fill markers stroke"
         d="m 69.445173,93.472479 c -6.216696,-1.566946 -1.585112,6.865201 -0.183504,6.471785 z"
         sodipodi:nodetypes="ccc" /><path
         id="rect16"
         style="vector-effect:none;fill:#feac84;fill-opacity:1;stroke:none;stroke-width:0.142962;stroke-linecap:round;stroke-linejoin:round;paint-order:fill markers stroke"
         d="m 75.325707,115.11197 21.041146,0.12976 0.875855,11.2029 -11.821243,18.98083 -11.360883,-18.98083 z"
         sodipodi:nodetypes="cccccc" /><path
         id="rect1"
         style="fill:#754a39;fill-opacity:1;stroke:none;stroke-width:0.142962;stroke-linecap:round;stroke-linejoin:round;stroke-dasharray:none;stroke-dashoffset:0;stroke-opacity:1;paint-order:fill markers stroke"
         d="m 104.28221,63.337318 c -1.38779,1.898677 -3.69583,2.965479 -6.594242,2.561835 -12.709687,-1.77 -25.670418,-3.155033 -26.753348,8.268442 -4.555445,-1.197194 -4.936848,4.179072 -4.735904,10.863357 0.101887,3.389261 0.711704,6.625653 2.983782,9.235838 l 0.09189,13.25024 c 0.45546,4.07492 7.475392,11.94842 15.352635,12.67465 6.989234,0.64435 14.799947,-5.09934 17.107697,-12.7206 l -0.0919,-13.708939 c 2.46824,-1.540553 2.97018,-7.450474 3.13044,-14.119864 2.03348,-3.844531 1.45565,-7.893955 0.40541,-11.980346 0.53046,-1.668406 0.33942,-3.468275 -0.89646,-4.324613 z M 77.325972,77.869576 c 5.390274,0.117919 13.444258,3.285994 21.036089,3.564883 -0.315528,2.090763 -0.133048,4.615628 0.575214,6.7975 2.178395,6.710769 3.210625,13.325031 -1.970442,19.437601 -1.32901,-5.19887 -5.639142,-3.87036 -8.04865,-5.43462 -1.568326,0.92733 -3.059225,1.93398 -7.366099,0.0632 -1.844315,1.76475 -6.047027,0.33953 -7.164317,5.50114 -5.971683,-6.93139 -4.104899,-14.96989 -2.321454,-21.336002 0.636297,-2.271291 0.287753,-4.669951 0.342925,-6.975395 1.106316,-1.243798 2.807498,-1.664473 4.916734,-1.61833 z" /><path
         id="rect3"
         style="fill:#80513e;fill-opacity:1;stroke:none;stroke-width:0.142962;stroke-linecap:round;stroke-linejoin:round;paint-order:fill markers stroke"
         d="m 104.28221,63.337318 c -1.38779,1.898677 -3.69583,2.965479 -6.594242,2.561835 -12.709687,-1.77 -25.670418,-3.155033 -26.753348,8.268442 -0.0021,-5.13e-4 -0.0036,-5.92e-4 -0.0057,-0.0011 l 1.658755,3.727341 c 4.62147,-4.602689 21.602135,3.348056 32.735255,-9.630588 -0.0491,-0.200493 -0.0929,-0.400623 -0.14444,-0.601314 0.53045,-1.668406 0.33941,-3.468276 -0.89646,-4.324613 z" /><path
         id="rect4"
         style="fill:#674132;fill-opacity:1;stroke:none;stroke-width:0.142962;stroke-linecap:round;stroke-linejoin:round;paint-order:fill markers stroke"
         d="m 66.821719,76.541611 c -0.672934,2.030174 -0.725275,5.087369 -0.623003,8.489341 0.067,2.22871 0.365194,4.387173 1.199689,6.349087 h 3.464911 c 0.329945,-1.711161 0.768057,-3.364194 1.202997,-4.916738 0.636297,-2.271291 0.287753,-4.669951 0.342925,-6.975396 0.07842,-0.08817 0.166704,-0.162928 0.251038,-0.242951 -0.598045,-1.144904 -2.137637,-1.925237 -5.838557,-2.703343 z" /><path
         id="rect5"
         style="fill:#ffffff;stroke:none;stroke-width:0.142962;stroke-linecap:round;stroke-linejoin:round;paint-order:fill markers stroke"
         d="m 78.054518,105.92114 c 5.092799,2.25421 10.144145,2.07406 14.952711,0.12582 -6.428238,9.90539 -14.63852,2.29146 -14.952711,-0.12582 z"
         sodipodi:nodetypes="ccc" /><path
         id="rect6"
         style="fill:#673e2f;fill-opacity:1;stroke:none;stroke-width:0.142962;stroke-linecap:round;stroke-linejoin:round;paint-order:fill markers stroke"
         d="m 90.199632,88.412583 c 1.725343,-0.337941 5.366503,-0.57347 7.879157,3.234238 -2.099087,-0.69715 -4.40835,-0.936729 -7.730064,-0.550508 -0.881993,0.0411 -1.30578,-2.351685 -0.149093,-2.68373 z"
         sodipodi:nodetypes="cccc" /><path
         id="path6"
         style="fill:#ffffff;stroke:none;stroke-width:0.149068;stroke-linecap:round;stroke-linejoin:round;paint-order:fill markers stroke"
         d="m 96.136186,95.199857 a 2.9164602,2.25957 0 0 1 -2.916462,2.25957 2.9164602,2.25957 0 0 1 -2.916455,-2.25957 2.9164602,2.25957 0 0 1 2.916455,-2.25957 2.9164602,2.25957 0 0 1 2.916462,2.25957 z" /><circle
         style="fill:#000000;fill-opacity:1;stroke:none;stroke-width:0.142962;stroke-linecap:round;stroke-linejoin:round;stroke-dasharray:none;stroke-dashoffset:0;stroke-opacity:1;paint-order:fill markers stroke"
         id="path7"
         cx="93.135681"
         cy="95.546257"
         r="1.8120909" /><path
         id="path9"
         style="fill:#000000;stroke:none;stroke-width:0.149068;stroke-linecap:round;stroke-linejoin:round;paint-order:fill markers stroke"
         d="m 93.219645,92.940296 a 2.9164602,2.25957 0 0 0 -2.916526,2.259707 2.9164602,2.25957 0 0 0 0.01913,0.227147 2.9164602,2.25957 0 0 1 2.913582,-2.227363 2.9164602,2.25957 0 0 1 2.898879,2.051673 2.9164602,2.25957 0 0 0 0.0014,-0.05146 2.9164602,2.25957 0 0 0 -2.916519,-2.259707 z" /><path
         id="path10"
         style="fill:#673e2f;fill-opacity:1;stroke:none;stroke-width:0.142962;stroke-linecap:round;stroke-linejoin:round;paint-order:fill markers stroke"
         d="m 80.812918,88.458459 c -1.725343,-0.337941 -5.366503,-0.57347 -7.879157,3.234238 2.099087,-0.69715 4.40835,-0.936729 7.730064,-0.550508 0.881993,0.0411 1.30578,-2.351685 0.149093,-2.68373 z"
         sodipodi:nodetypes="cccc" /><path
         id="path11"
         style="fill:#ffffff;stroke:none;stroke-width:0.149068;stroke-linecap:round;stroke-linejoin:round;paint-order:fill markers stroke"
         d="m 74.876364,95.245733 a 2.9164602,2.25957 0 0 0 2.916462,2.25957 2.9164602,2.25957 0 0 0 2.916455,-2.25957 2.9164602,2.25957 0 0 0 -2.916455,-2.25957 2.9164602,2.25957 0 0 0 -2.916462,2.25957 z" /><circle
         style="fill:#000000;fill-opacity:1;stroke:none;stroke-width:0.142962;stroke-linecap:round;stroke-linejoin:round;stroke-dasharray:none;stroke-dashoffset:0;stroke-opacity:1;paint-order:fill markers stroke"
         id="circle11"
         cx="-77.876869"
         cy="95.592133"
         r="1.8120909"
         transform="scale(-1,1)" /><path
         id="path12"
         style="fill:#000000;stroke:none;stroke-width:0.149068;stroke-linecap:round;stroke-linejoin:round;paint-order:fill markers stroke"
         d="m 77.792905,92.986172 a 2.9164602,2.25957 0 0 1 2.916526,2.259707 2.9164602,2.25957 0 0 1 -0.01913,0.227147 2.9164602,2.25957 0 0 0 -2.913582,-2.227363 2.9164602,2.25957 0 0 0 -2.898879,2.051673 2.9164602,2.25957 0 0 1 -0.0014,-0.05146 2.9164602,2.25957 0 0 1 2.916519,-2.259707 z" /><path
         id="rect12"
         style="fill:#1a1a1a;fill-opacity:1;stroke:none;stroke-width:0.142962;stroke-linecap:round;stroke-linejoin:round;paint-order:fill markers stroke"
         d="m 77.567088,90.98051 c -1.869309,-0.0085 -3.68156,0.308709 -4.645482,0.494357 -0.581858,0.13321 -1.700158,0.29845 -2.192084,1.065165 -0.04851,0.07562 -0.09146,0.157066 -0.131945,0.240746 l -2.323296,-0.176057 c 0.0473,0.589419 0.197843,1.187599 1.013703,1.841066 l 0.936895,-0.02021 c -0.04623,0.686253 -0.0064,1.390671 0.03819,1.957581 0.152721,1.943822 1.91229,3.275813 3.037077,3.464173 1.323903,0.08564 5.786699,0.483449 7.657573,0.113207 1.85775,-0.367646 2.675367,-2.4749 2.689379,-5.211883 0.802766,-1.598553 3.506584,-0.466524 3.757109,0.03234 0.01401,2.736982 0.831629,4.844237 2.68938,5.211883 1.870873,0.370242 6.333662,-0.02756 7.657565,-0.113206 1.124787,-0.188361 2.884368,-1.520352 3.037088,-3.464175 0.0446,-0.56691 0.0845,-1.271327 0.0382,-1.95758 l 0.93689,0.02021 c 0.81586,-0.653468 0.96641,-1.251647 1.01371,-1.841066 l -2.32329,0.176057 c -0.0405,-0.08368 -0.0834,-0.165123 -0.13196,-0.240746 -0.491926,-0.766715 -1.610219,-0.931955 -2.192076,-1.065165 -0.963923,-0.185648 -2.776174,-0.50282 -4.645482,-0.494357 -2.403398,0.01088 -4.900923,0.559879 -5.810257,2.617703 -1.374544,-0.519247 -2.953397,-0.672455 -4.296682,-0.03235 -0.909334,-2.057824 -3.406859,-2.606821 -5.810256,-2.617702 z m -0.957678,0.681196 c 1.605739,-0.0079 3.168545,0.01027 4.331477,0.531705 0.578472,0.373349 1.605305,0.797707 1.857196,1.509186 1.189668,3.360285 -0.551814,5.2068 -1.855034,5.883768 -0.385671,0.357459 -7.476138,0.07698 -7.957125,-0.234131 -4.270814,-2.571172 -2.13472,-6.803801 -0.405088,-7.165409 0.914468,-0.23769 2.422843,-0.517263 4.028574,-0.525119 z m 17.937787,0.02065 c 1.605732,0.0079 2.962089,0.310815 3.876558,0.548505 1.729635,0.361608 3.912505,4.582545 -0.358309,7.153717 -0.480987,0.311112 -7.571454,0.59159 -7.957125,0.23413 -1.30322,-0.676968 -3.044702,-2.523482 -1.855034,-5.883766 0.251891,-0.71148 1.220252,-1.007215 1.798724,-1.380564 1.162931,-0.521431 2.889448,-0.679878 4.495186,-0.672022 z"
         sodipodi:nodetypes="scsccccscsccscsccccccsccsssscccsscccscsc" /><path
         style="font-variation-settings:normal;vector-effect:none;fill:#feac84;fill-opacity:1;stroke:none;stroke-width:0.142962;stroke-linecap:round;stroke-linejoin:round;stroke-miterlimit:4;stroke-dasharray:none;stroke-dashoffset:0;stroke-opacity:1;-inkscape-stroke:none;paint-order:fill markers stroke"
         d="M 75.014767,126.32887 66.98651,138.48593"
         id="path18" /><path
         id="path24"
         style="font-variation-settings:normal;vector-effect:none;fill:#8fa6ab;fill-opacity:1;stroke:none;stroke-width:0.142962;stroke-linecap:round;stroke-linejoin:round;stroke-miterlimit:4;stroke-dasharray:none;stroke-dashoffset:0;stroke-opacity:1;-inkscape-stroke:none;paint-order:fill markers stroke"
         d="m 72.789653,151.58353 c -0.08194,4.3086 -0.55633,8.59758 -1.857978,12.8452 l 0.389975,0.25214 c 1.362147,-4.32548 1.909224,-8.68798 1.927076,-13.07455 z m -14.565339,0.22935 -0.344027,0.11468 c 0.04267,4.56582 0.844161,8.76871 2.293523,12.66178 l 0.367185,-0.0919 c -1.447064,-4.0595 -2.3357,-8.25854 -2.316681,-12.68457 z" /><path
         id="path21"
         style="font-variation-settings:normal;vector-effect:none;fill:#04545a;fill-opacity:1;stroke:none;stroke-width:0.138342;stroke-linecap:round;stroke-linejoin:round;stroke-miterlimit:4;stroke-dasharray:none;stroke-dashoffset:0;stroke-opacity:1;-inkscape-stroke:none;paint-order:fill markers stroke"
         d="m 74.551522,122.0463 c -4.801433,1.88011 -9.368871,6.21579 -10.455176,16.39383 l 0.03514,0.0625 -0.10697,0.0114 c -3.469783,1.62147 -7.696813,1.39611 -7.201111,12.68346 0.09187,1.40015 2.031931,0.91754 1.913578,0.0651 0.337377,-4.58363 -0.577623,-11.01491 6.520532,-10.99674 7.098156,0.0182 7.349717,6.09589 6.779432,10.89959 0.13033,1.13438 1.91952,0.77498 2.076359,-0.0326 0.289339,-5.41178 0.750215,-10.89108 -7.676018,-12.86691 -0.0027,-0.15492 -0.13832,-9.78113 7.866704,-14.00018 z m 22.349023,0.0196 0.212907,2.72542 c 8.559318,6.44578 6.257268,24.0596 5.195548,33.8739 a 5.2898724,5.2574335 0 0 0 -4.712373,5.21622 5.2898724,5.2574335 0 0 0 5.290113,5.25756 5.2898724,5.2574335 0 0 0 5.2896,-5.25756 5.2898724,5.2574335 0 0 0 -3.29282,-4.86792 c 0.71301,-15.22225 2.91999,-31.73126 -7.982975,-36.94762 z" /><ellipse
         style="font-variation-settings:normal;vector-effect:none;fill:#c7dde6;fill-opacity:1;stroke:none;stroke-width:0.136797;stroke-linecap:round;stroke-linejoin:round;stroke-miterlimit:4;stroke-dasharray:none;stroke-dashoffset:0;stroke-opacity:1;-inkscape-stroke:none;paint-order:fill markers stroke"
         id="path20"
         cx="102.90277"
         cy="163.76787"
         rx="4.398572"
         ry="4.1714988" /><path
         id="rect19"
         style="font-variation-settings:normal;vector-effect:none;fill:#6dc2db;fill-opacity:1;stroke:none;stroke-width:0.142962;stroke-linecap:round;stroke-linejoin:round;stroke-miterlimit:4;stroke-dasharray:none;stroke-dashoffset:0;stroke-opacity:1;-inkscape-stroke:none;paint-order:fill markers stroke"
         d="m 102.23789,160.78335 v 2.51405 h -2.514052 v 1.42757 h 2.514052 v 2.51406 h 1.4272 v -2.51406 h 2.51406 v -1.42757 h -2.51406 v -2.51405 z" /><path
         id="path23"
         style="font-variation-settings:normal;vector-effect:none;fill:#04545a;fill-opacity:1;stroke:none;stroke-width:0.142962;stroke-linecap:round;stroke-linejoin:round;stroke-miterlimit:4;stroke-dasharray:none;stroke-dashoffset:0;stroke-opacity:1;-inkscape-stroke:none;paint-order:fill markers stroke"
         d="m 60.748291,164.20562 -0.973275,0.22715 c 0.945948,3.27479 1.942226,6.51851 4.833303,8.5963 -1.806768,1.02123 -3.538989,0.60582 -5.254886,-0.12975 -1.248617,-0.26697 -2.961975,-1.43882 -3.137791,0.38335 -0.320285,1.7962 2.02688,0.69614 3.040391,1.04422 3.390244,0.99232 5.461578,0.46173 6.799962,-0.16432 1.338349,0.62595 2.904975,1.25978 6.294963,0.26754 1.013511,-0.34808 3.223411,0.64876 2.903126,-1.14744 -0.175816,-1.82217 -1.889167,-0.65032 -3.137784,-0.38335 -1.715897,0.73557 -3.448488,1.15098 -5.255256,0.12975 2.891077,-2.07779 3.887355,-5.32151 4.833304,-8.5963 l -0.973276,-0.22715 c -1.202513,2.84901 -2.061148,5.8472 -4.986209,7.94978 -2.925082,-2.10258 -3.784052,-5.10077 -4.986572,-7.94978 z"
         sodipodi:nodetypes="ccccccccccccccc" /><path
         id="path25"
         style="font-variation-settings:normal;vector-effect:none;fill:#cae2ee;fill-opacity:1;stroke:none;stroke-width:0.142962;stroke-linecap:round;stroke-linejoin:round;stroke-miterlimit:4;stroke-dasharray:none;stroke-dashoffset:0;stroke-opacity:1;-inkscape-stroke:none;paint-order:fill markers stroke"
         d="m 116.92378,207.01841 c -8.436,-5.84528 -19.098575,-9.15332 -30.898964,-11.16476 l -0.332996,0.71636 c -10.717189,0.97077 -21.749251,3.72478 -32.03029,2.22406 l -0.529644,11.21216 h 63.859164 z" /><path
         id="path28"
         style="font-variation-settings:normal;vector-effect:none;fill:#b6d3e1;fill-opacity:1;stroke:none;stroke-width:0.142962;stroke-linecap:round;stroke-linejoin:round;stroke-miterlimit:4;stroke-dasharray:none;stroke-dashoffset:0;stroke-opacity:1;-inkscape-stroke:none;paint-order:fill markers stroke"
         d="m 53.133358,209.97131 c 8.992685,-8.7295 21.664064,-6.77369 32.799941,-9.27773 l -0.137835,-4.40438 c -10.408859,1.19927 -21.145764,1.93954 -32.125847,2.3391 z" /><path
         id="path30"
         style="font-variation-settings:normal;vector-effect:none;fill:#aecfde;fill-opacity:1;stroke:none;stroke-width:0.142962;stroke-linecap:round;stroke-linejoin:round;stroke-miterlimit:4;stroke-dasharray:none;stroke-dashoffset:0;stroke-opacity:1;-inkscape-stroke:none;paint-order:fill markers stroke"
         d="m 116.72346,198.1174 c -10.8296,-1.32463 -20.885639,-3.6648 -30.68688,-6.33916 l -0.0974,4.44407 c 9.694033,2.95412 22.33131,5.83597 31.01364,12.08105 z" /><path
         id="path31"
         style="font-variation-settings:normal;vector-effect:none;fill:#ebf4f9;fill-opacity:1;stroke:none;stroke-width:0.142962;stroke-linecap:round;stroke-linejoin:round;stroke-miterlimit:4;stroke-dasharray:none;stroke-dashoffset:0;stroke-opacity:1;-inkscape-stroke:none;paint-order:fill markers stroke"
         d="m 98.947197,210.00623 -0.14334,-1.70066 c -8.573456,-3.27435 -17.475776,-3.34284 -26.741221,0.12974 l 0.115408,1.57092 z" /><path
         id="path33"
         style="font-variation-settings:normal;vector-effect:none;fill:url(#linearGradient35);fill-opacity:1;stroke:none;stroke-width:0.142962;stroke-linecap:round;stroke-linejoin:round;stroke-miterlimit:4;stroke-dasharray:none;stroke-dashoffset:0;stroke-opacity:1;-inkscape-stroke:none;paint-order:fill markers stroke"
         d="m 86.023714,196.36566 v -4.5911 c -14.456944,-1.09603 -28.805279,-0.78693 -32.815745,-6.87284 -8.382122,-12.71995 -2.761693,-33.27457 -3.40794,-49.89955 -6.868683,3.75869 -8.114561,11.53361 -7.931392,15.38461 -0.422855,2.53658 -0.954235,10.15594 -1.759839,18.2596 -1.332573,13.4045 -2.840848,29.32908 13.573678,29.70736 l -0.02091,0.44033 c 10.28104,1.50072 21.313102,-1.25329 32.030291,-2.22406 0.174698,-0.0169 0.278542,-0.0904 0.331893,-0.20435 z" /><path
         id="rect39"
         style="vector-effect:none;fill:#dde7f0;fill-opacity:1;stroke:none;stroke-width:0.142962;stroke-linecap:round;stroke-linejoin:round;paint-order:fill markers stroke"
         d="m 117.51548,147.92763 0.99801,19.79385 -1.03127,-0.0665 z"
         sodipodi:nodetypes="cccc" /><path
         id="path41"
         style="font-variation-settings:normal;vector-effect:none;fill:url(#linearGradient38);fill-opacity:1;stroke:none;stroke-width:0.142962;stroke-linecap:round;stroke-linejoin:round;stroke-miterlimit:4;stroke-dasharray:none;stroke-dashoffset:0;stroke-opacity:1;-inkscape-stroke:none;paint-order:fill markers stroke"
         d="m 123.74003,136.22134 c 1.32203,23.40256 1.63034,32.59698 -0.19811,42.69002 -3.94814,3.16589 -19.65824,-1.494 -39.383162,-3.21534 l -0.260227,16.00834 44.099949,2.54456 c 3.88839,-3.52522 4.9454,-9.36355 5.15933,-15.98665 0.38851,-12.02858 -2.298,-26.42286 -2.77098,-30.18849 -0.77217,-5.91158 -3.23281,-9.45111 -6.6468,-11.85244 z" /><g
         id="g59"><path
           style="font-variation-settings:normal;vector-effect:none;fill:#feac87;fill-opacity:1;stroke:none;stroke-width:0.142962;stroke-linecap:round;stroke-linejoin:round;stroke-miterlimit:4;stroke-dasharray:none;stroke-dashoffset:0;stroke-opacity:1;-inkscape-stroke:none;paint-order:fill markers stroke"
           d="m 98.42049,177.92264 c 5.12304,-4.99552 10.17182,-10.03532 22.04134,-11.0089 2.6996,0.76814 1.21633,2.57063 -0.18819,3.34031 5.11434,-1.21148 3.62316,2.72621 2.77812,2.85843 1.73687,0.30422 1.50812,2.77005 0.51515,3.30468 1.93013,0.42824 1.16872,2.69068 -0.0941,3.24621 -1.85068,0.62538 -5.75325,0.30513 -8.70362,0.16466 -7.95092,-2.33504 -10.53657,-1.31516 -16.3487,-1.90539 z"
           id="path43"
           sodipodi:nodetypes="cccccccc" /><path
           id="path46"
           style="vector-effect:none;fill:#e28e67;fill-opacity:1;stroke:none;stroke-width:0.142962;stroke-linecap:round;stroke-linejoin:round;paint-order:fill markers stroke"
           d="m 124.09141,176.6171 c -0.14768,-0.0836 -0.31774,-0.15407 -0.5245,-0.19994 0.11008,-0.0592 0.2088,-0.14548 0.29845,-0.24663 l -9.68646,1.93515 z" /><path
           id="path47"
           style="font-variation-settings:normal;vector-effect:none;fill:#e28e67;fill-opacity:1;stroke:none;stroke-width:0.142962;stroke-linecap:round;stroke-linejoin:round;stroke-miterlimit:4;stroke-dasharray:none;stroke-dashoffset:0;stroke-opacity:1;-inkscape-stroke:none;paint-order:fill markers stroke"
           d="m 123.42982,172.84455 -10.6149,2.11747 10.81337,-1.63083 c -0.16148,-0.10282 -0.35202,-0.17935 -0.57668,-0.21869 0.1203,-0.0189 0.25263,-0.1207 0.37821,-0.26795 z" /><path
           id="path49"
           style="vector-effect:none;fill:#e28e67;fill-opacity:1;stroke:none;stroke-width:0.142962;stroke-linecap:round;stroke-linejoin:round;paint-order:fill markers stroke"
           d="m 122.52711,170.06145 c -0.54507,-0.0812 -1.27867,-0.0383 -2.25346,0.1926 0.2536,-0.13898 0.50917,-0.31234 0.74282,-0.50649 l -10.36385,2.07079 z" /></g><path
         style="font-variation-settings:normal;vector-effect:none;fill:#ffffff;fill-opacity:1;stroke:none;stroke-width:0.201;stroke-linecap:round;stroke-linejoin:round;stroke-miterlimit:4;stroke-dasharray:none;stroke-dashoffset:0;stroke-opacity:1;-inkscape-stroke:none;paint-order:fill markers stroke"
         d="m 156.97084,177.94499 h 19.27013 l 1.50834,2.61252 2.69579,-10.06081 4.77612,25.78297 4.80971,-17.95007 h 13.24435 v 1.29918 h -12.34784 l -4.49014,18.98952 h -2.15151 l -3.92888,-21.32812 -1.21608,4.39658 h -2.33859 l -1.59026,-2.43215 h -18.05405 z"
         id="path57" /></g></g></svg>
